<svg width="811" height="483" viewBox="0 0 811 483" fill="none" xmlns="http://www.w3.org/2000/svg">
<path d="M38.5446 214.204L110.249 152.744H40.2519V118.599H159.758V159.573L84.64 222.741H161.466V256.885H38.5446V214.204ZM175.408 187.742C175.408 176.74 177.4 166.781 181.383 157.866C185.367 148.95 190.773 141.362 197.602 135.102C204.621 128.653 212.778 123.721 222.072 120.306C231.557 116.892 241.611 115.185 252.234 115.185C262.856 115.185 272.815 116.892 282.11 120.306C291.595 123.721 299.752 128.653 306.581 135.102C313.599 141.362 319.1 148.95 323.084 157.866C327.067 166.781 329.059 176.74 329.059 187.742C329.059 198.744 327.067 208.703 323.084 217.619C319.1 226.534 313.599 234.217 306.581 240.667C299.752 246.926 291.595 251.764 282.11 255.178C272.815 258.592 262.856 260.3 252.234 260.3C241.611 260.3 231.557 258.592 222.072 255.178C212.778 251.764 204.621 246.926 197.602 240.667C190.773 234.217 185.367 226.534 181.383 217.619C177.4 208.703 175.408 198.744 175.408 187.742ZM218.089 187.742C218.089 198.175 221.029 206.617 226.91 213.066C232.98 219.516 241.421 222.741 252.234 222.741C263.046 222.741 271.393 219.516 277.273 213.066C283.343 206.617 286.378 198.175 286.378 187.742C286.378 177.309 283.343 168.868 277.273 162.418C271.393 155.969 263.046 152.744 252.234 152.744C241.421 152.744 232.98 155.969 226.91 162.418C221.029 168.868 218.089 177.309 218.089 187.742Z" fill="#2A0548"/>
<path d="M564.574 118.599H607.254V256.885H564.574V118.599ZM561.159 75.0647C561.159 68.2357 563.53 62.4501 568.273 57.7078C573.205 52.7758 579.085 50.3098 585.914 50.3098C592.743 50.3098 598.529 52.7758 603.271 57.7078C608.203 62.4501 610.669 68.2357 610.669 75.0647C610.669 81.8936 608.203 87.7741 603.271 92.7061C598.529 97.4484 592.743 99.8196 585.914 99.8196C579.085 99.8196 573.205 97.4484 568.273 92.7061C563.53 87.7741 561.159 81.8936 561.159 75.0647ZM632.227 118.599H673.201V137.379H673.77C675.098 134.723 676.995 132.067 679.461 129.412C681.927 126.756 684.867 124.385 688.281 122.298C691.696 120.212 695.585 118.504 699.948 117.176C704.311 115.849 709.053 115.185 714.175 115.185C724.987 115.185 733.713 116.892 740.352 120.306C746.991 123.531 752.113 128.084 755.717 133.964C759.511 139.845 762.072 146.769 763.4 154.736C764.728 162.703 765.392 171.334 765.392 180.629V256.885H722.711V189.165C722.711 185.181 722.521 181.103 722.142 176.93C721.952 172.567 721.098 168.583 719.581 164.979C718.253 161.375 716.071 158.435 713.036 156.158C710.191 153.882 706.018 152.744 700.517 152.744C695.016 152.744 690.558 153.787 687.143 155.874C683.729 157.771 681.073 160.426 679.176 163.841C677.469 167.066 676.331 170.765 675.762 174.938C675.193 179.111 674.908 183.474 674.908 188.027V256.885H632.227V118.599Z" fill="#2A0548"/>
<path d="M441.33 39.8457C494.386 39.8457 537.298 82.7565 537.298 135.812C537.298 198.209 465.174 286.365 445.977 308.724C443.495 311.615 439.125 311.568 436.644 308.676C433.089 304.534 427.737 298.155 421.37 290.114C420.475 288.984 419.989 287.58 419.989 286.138V195.351C419.989 190.55 425.129 187.368 429.775 188.576C433.707 189.598 437.832 190.142 442.083 190.142C469.036 190.141 490.887 168.291 490.887 141.338C490.887 114.385 469.036 92.5344 442.083 92.5342C415.13 92.5342 393.279 114.384 393.279 141.338C393.279 142.98 393.361 144.603 393.52 146.203V231.159C393.52 237.503 385.443 239.927 382.114 234.527C362.399 202.545 345.363 166.137 345.363 135.812C345.364 82.7565 388.274 39.8457 441.33 39.8457Z" fill="url(#paint0_linear_628_710)"/>
<path d="M489.535 274.948C518.243 282.071 537.555 295.375 537.555 310.614C537.555 333.359 494.531 351.798 441.459 351.798C388.386 351.798 345.362 333.36 345.361 310.614C345.361 295.377 364.669 282.073 393.371 274.949C376.149 281.168 365.145 290.655 365.145 301.285C365.145 320.017 399.311 335.202 441.457 335.202C483.603 335.202 517.769 320.017 517.769 301.285C517.769 290.653 506.761 281.167 489.535 274.948Z" fill="url(#paint1_linear_628_710)"/>
<path d="M126.606 392.934C130.83 392.934 134.119 393.849 136.47 395.678C138.822 397.464 139.998 400.055 139.998 403.452C139.998 404.715 139.78 405.847 139.345 406.849C138.953 407.807 138.409 408.656 137.712 409.397C137.058 410.094 136.274 410.682 135.36 411.161C134.445 411.64 133.487 412.01 132.485 412.271C133.705 412.489 134.837 412.881 135.882 413.447C136.971 413.97 137.908 414.667 138.692 415.538C139.476 416.365 140.085 417.367 140.521 418.543C141 419.719 141.239 421.047 141.239 422.528C141.239 424.226 140.869 425.794 140.129 427.231C139.388 428.625 138.343 429.845 136.993 430.89C135.687 431.891 134.119 432.675 132.289 433.242C130.46 433.808 128.435 434.091 126.214 434.091H113.475V392.934H126.606ZM120.465 409.854H125.169C126.214 409.854 127.194 409.767 128.108 409.593C129.067 409.419 129.872 409.114 130.526 408.678C131.222 408.199 131.767 407.589 132.159 406.849C132.594 406.065 132.812 405.107 132.812 403.975C132.812 402.058 132.159 400.665 130.852 399.794C129.546 398.879 127.782 398.422 125.561 398.422H120.465V409.854ZM120.465 428.603H125.365C126.541 428.603 127.651 428.494 128.696 428.277C129.742 428.015 130.656 427.623 131.44 427.101C132.224 426.578 132.834 425.903 133.269 425.076C133.748 424.205 133.988 423.138 133.988 421.875C133.988 420.655 133.727 419.632 133.204 418.804C132.681 417.933 131.985 417.236 131.114 416.714C130.243 416.191 129.241 415.821 128.108 415.603C126.976 415.385 125.8 415.276 124.581 415.276H120.465V428.603ZM168.994 403.256H175.723V434.091H170.562L169.713 430.367H169.451C168.363 431.499 166.991 432.523 165.336 433.438C163.681 434.309 161.677 434.744 159.326 434.744C156.059 434.744 153.446 433.83 151.486 432C149.526 430.171 148.546 427.427 148.546 423.769V403.256H155.275V423.05C155.275 425.446 155.82 427.123 156.908 428.081C158.041 429.039 159.391 429.518 160.959 429.518C162.657 429.518 164.16 429.169 165.466 428.473C166.773 427.732 167.949 426.774 168.994 425.598V403.256ZM180.485 403.256H187.736L193.943 419.915L196.164 427.297H196.294L198.45 419.849L204.068 403.256H210.928L199.234 436.181C197.928 439.883 196.251 442.888 194.204 445.197C192.201 447.548 189.566 449.29 186.299 450.423L183.425 445.131C185.602 444.304 187.497 443.106 189.108 441.538C190.72 440.014 191.917 438.01 192.701 435.528L193.224 434.025L180.485 403.256ZM231.116 392.934H238.106V428.342H255.353V434.091H231.116V392.934ZM289.321 418.347C289.321 420.916 288.907 423.225 288.08 425.272C287.296 427.318 286.207 429.039 284.813 430.432C283.42 431.826 281.786 432.893 279.914 433.634C278.041 434.374 276.016 434.744 273.838 434.744C271.661 434.744 269.635 434.396 267.763 433.699C265.933 433.002 264.322 432 262.928 430.694C261.578 429.344 260.511 427.689 259.727 425.729C258.987 423.769 258.617 421.526 258.617 419C258.617 416.387 259.009 414.079 259.793 412.075C260.62 410.072 261.731 408.373 263.124 406.98C264.518 405.586 266.151 404.541 268.024 403.844C269.897 403.104 271.922 402.733 274.099 402.733C276.277 402.733 278.28 403.082 280.11 403.779C281.982 404.432 283.594 405.412 284.944 406.718C286.338 408.025 287.405 409.658 288.145 411.618C288.929 413.578 289.321 415.821 289.321 418.347ZM282.331 418.673C282.331 416.714 282.091 415.059 281.612 413.709C281.133 412.315 280.502 411.183 279.718 410.311C278.934 409.44 278.041 408.809 277.039 408.417C276.038 408.025 274.992 407.829 273.903 407.829C272.858 407.829 271.835 408.003 270.833 408.352C269.831 408.7 268.939 409.288 268.155 410.115C267.371 410.943 266.739 412.054 266.26 413.447C265.825 414.841 265.607 416.583 265.607 418.673C265.607 420.59 265.846 422.245 266.325 423.638C266.805 425.032 267.436 426.186 268.22 427.101C269.004 427.972 269.897 428.625 270.898 429.061C271.944 429.453 272.989 429.649 274.034 429.649C275.079 429.649 276.103 429.474 277.105 429.126C278.106 428.777 278.999 428.19 279.783 427.362C280.567 426.491 281.177 425.359 281.612 423.965C282.091 422.528 282.331 420.764 282.331 418.673ZM311.201 429.649C312.594 429.649 313.814 429.496 314.859 429.191C315.948 428.843 316.928 428.451 317.799 428.015L319.171 432.85C318.125 433.416 316.862 433.873 315.382 434.221C313.901 434.57 312.268 434.744 310.482 434.744C308.217 434.744 306.083 434.417 304.08 433.764C302.12 433.067 300.4 432.066 298.919 430.759C297.482 429.409 296.328 427.732 295.457 425.729C294.629 423.725 294.215 421.395 294.215 418.739C294.215 416.3 294.607 414.1 295.391 412.141C296.175 410.137 297.286 408.439 298.723 407.045C300.16 405.651 301.88 404.584 303.884 403.844C305.887 403.104 308.087 402.733 310.482 402.733C311.832 402.733 313.182 402.842 314.532 403.06C315.926 403.278 317.45 403.779 319.105 404.563L317.603 409.462C315.556 408.33 313.422 407.764 311.201 407.764C308.196 407.764 305.757 408.7 303.884 410.573C302.011 412.446 301.075 415.102 301.075 418.543C301.075 420.633 301.358 422.397 301.924 423.834C302.534 425.228 303.318 426.36 304.276 427.231C305.234 428.102 306.301 428.734 307.477 429.126C308.696 429.474 309.938 429.649 311.201 429.649ZM325.081 406C327.085 404.911 329.001 404.105 330.83 403.583C332.703 403.017 334.772 402.733 337.036 402.733C338.778 402.733 340.368 402.929 341.805 403.321C343.286 403.713 344.549 404.345 345.594 405.216C346.639 406.087 347.445 407.263 348.011 408.744C348.621 410.181 348.926 411.945 348.926 414.035V434.091H343.504L342.785 430.759H342.589C341.37 432.153 339.954 433.176 338.343 433.83C336.731 434.439 334.946 434.744 332.986 434.744C329.894 434.744 327.389 433.917 325.473 432.262C323.6 430.607 322.664 428.407 322.664 425.664C322.664 423.965 323.013 422.506 323.709 421.287C324.406 420.024 325.386 418.978 326.649 418.151C327.912 417.323 329.415 416.714 331.157 416.322C332.899 415.886 334.815 415.668 336.906 415.668H342.132V413.317C342.132 411.357 341.609 410.007 340.564 409.266C339.519 408.482 338.081 408.09 336.252 408.09C335.12 408.09 333.835 408.286 332.398 408.678C331.004 409.027 329.393 409.702 327.564 410.703L325.081 406ZM342.197 420.111L338.081 420.176C334.989 420.263 332.812 420.807 331.549 421.809C330.286 422.811 329.654 423.987 329.654 425.337C329.654 426.208 329.785 426.927 330.046 427.493C330.351 428.059 330.743 428.516 331.222 428.865C331.701 429.213 332.246 429.474 332.855 429.649C333.509 429.779 334.162 429.845 334.815 429.845C336.165 429.845 337.494 429.518 338.8 428.865C340.15 428.168 341.283 427.188 342.197 425.925V420.111ZM357.934 434.091V387.643H364.532V434.091H357.934ZM372.517 430.171C372.517 428.908 372.952 427.863 373.824 427.035C374.695 426.164 375.718 425.729 376.894 425.729C378.07 425.729 379.072 426.164 379.899 427.035C380.77 427.863 381.206 428.908 381.206 430.171C381.206 431.565 380.77 432.675 379.899 433.503C379.072 434.33 378.07 434.744 376.894 434.744C375.718 434.744 374.695 434.33 373.824 433.503C372.952 432.675 372.517 431.565 372.517 430.171ZM415.2 392.281C419.685 392.281 423.605 393.108 426.959 394.763L425.325 400.316C423.496 399.445 421.798 398.814 420.23 398.422C418.705 397.986 417.159 397.769 415.591 397.769C413.24 397.769 411.389 398.269 410.039 399.271C408.689 400.273 408.013 401.666 408.013 403.452C408.013 405.02 408.536 406.261 409.581 407.176C410.627 408.09 412.325 408.918 414.677 409.658L418.727 410.965C422.298 412.097 424.912 413.687 426.567 415.734C428.222 417.737 429.049 420.067 429.049 422.724C429.049 424.509 428.701 426.143 428.004 427.623C427.307 429.104 426.305 430.367 424.999 431.412C423.736 432.458 422.19 433.285 420.36 433.895C418.531 434.461 416.506 434.744 414.285 434.744C412.064 434.744 409.843 434.526 407.621 434.091C405.444 433.699 403.31 433.002 401.219 432L402.853 426.513C404.725 427.427 406.554 428.124 408.34 428.603C410.126 429.039 411.998 429.257 413.958 429.257C416.31 429.257 418.226 428.756 419.707 427.754C421.188 426.752 421.928 425.272 421.928 423.312C421.928 421.918 421.406 420.677 420.36 419.588C419.359 418.499 417.377 417.476 414.416 416.518L410.561 415.276C407.556 414.275 405.183 412.946 403.441 411.291C401.742 409.593 400.893 407.241 400.893 404.236C400.893 400.621 402.112 397.725 404.551 395.547C406.99 393.37 410.539 392.281 415.2 392.281ZM436.343 406C438.346 404.911 440.262 404.105 442.092 403.583C443.964 403.017 446.033 402.733 448.298 402.733C450.04 402.733 451.63 402.929 453.067 403.321C454.548 403.713 455.811 404.345 456.856 405.216C457.901 406.087 458.707 407.263 459.273 408.744C459.883 410.181 460.187 411.945 460.187 414.035V434.091H454.765L454.047 430.759H453.851C452.631 432.153 451.216 433.176 449.604 433.83C447.993 434.439 446.207 434.744 444.247 434.744C441.155 434.744 438.651 433.917 436.735 432.262C434.862 430.607 433.926 428.407 433.926 425.664C433.926 423.965 434.274 422.506 434.971 421.287C435.668 420.024 436.648 418.978 437.911 418.151C439.174 417.323 440.676 416.714 442.418 416.322C444.16 415.886 446.077 415.668 448.167 415.668H453.393V413.317C453.393 411.357 452.871 410.007 451.826 409.266C450.78 408.482 449.343 408.09 447.514 408.09C446.382 408.09 445.097 408.286 443.66 408.678C442.266 409.027 440.654 409.702 438.825 410.703L436.343 406ZM453.459 420.111L449.343 420.176C446.251 420.263 444.073 420.807 442.81 421.809C441.547 422.811 440.916 423.987 440.916 425.337C440.916 426.208 441.046 426.927 441.308 427.493C441.613 428.059 442.005 428.516 442.484 428.865C442.963 429.213 443.507 429.474 444.117 429.649C444.77 429.779 445.423 429.845 446.077 429.845C447.427 429.845 448.755 429.518 450.062 428.865C451.412 428.168 452.544 427.188 453.459 425.925V420.111ZM487.053 403.256H494.173L482.872 434.091H475.816L464.514 403.256H471.766L477.907 422.462L479.279 428.865H479.54L480.912 422.528L487.053 403.256ZM525.191 419.849H503.567V420.111C503.567 423.246 504.482 425.62 506.311 427.231C508.14 428.843 510.557 429.649 513.562 429.649C515.217 429.649 516.698 429.518 518.005 429.257C519.355 428.952 520.705 428.494 522.055 427.885L523.362 432.784C522.099 433.35 520.596 433.808 518.854 434.156C517.112 434.548 515.196 434.744 513.105 434.744C510.884 434.744 508.772 434.439 506.768 433.83C504.765 433.22 503.001 432.262 501.477 430.955C499.996 429.649 498.82 427.994 497.949 425.99C497.078 423.987 496.642 421.591 496.642 418.804C496.642 416.409 496.991 414.231 497.688 412.271C498.428 410.268 499.452 408.569 500.758 407.176C502.108 405.739 503.72 404.65 505.592 403.909C507.509 403.125 509.621 402.733 511.929 402.733C513.933 402.733 515.74 403.06 517.351 403.713C519.006 404.367 520.4 405.303 521.532 406.522C522.708 407.698 523.601 409.157 524.211 410.899C524.864 412.598 525.191 414.492 525.191 416.583V419.849ZM518.266 415.146C518.266 414.1 518.135 413.121 517.874 412.206C517.613 411.291 517.221 410.507 516.698 409.854C516.176 409.157 515.479 408.613 514.608 408.221C513.78 407.785 512.778 407.568 511.603 407.568C509.425 407.568 507.639 408.265 506.246 409.658C504.896 411.052 504.068 412.925 503.763 415.276L518.266 415.146ZM549.648 392.934H558.663L565.915 415.146C566.524 417.018 567.047 418.717 567.482 420.241C567.961 421.722 568.441 423.399 568.92 425.272H569.116C569.595 423.704 570.074 422.027 570.553 420.241C571.075 418.456 571.576 416.757 572.055 415.146L579.045 392.934H588.061L591.458 434.091H584.664C584.315 429.736 583.967 425.359 583.618 420.96C583.314 416.518 583.074 412.075 582.9 407.633L582.638 400.12H582.508C581.767 402.821 580.984 405.564 580.156 408.352C579.372 411.139 578.545 413.817 577.674 416.387L571.859 434.091H565.915L560.035 416.322C559.425 414.449 558.881 412.75 558.402 411.226C557.966 409.702 557.553 408.308 557.161 407.045C556.812 405.739 556.486 404.519 556.181 403.387C555.876 402.254 555.593 401.166 555.331 400.12H555.135C555.005 403.822 554.809 407.589 554.548 411.422C554.286 415.255 554.047 418.935 553.829 422.462L553.045 434.091H546.382L549.648 392.934ZM628.783 418.347C628.783 420.916 628.37 423.225 627.542 425.272C626.758 427.318 625.669 429.039 624.276 430.432C622.882 431.826 621.249 432.893 619.376 433.634C617.503 434.374 615.478 434.744 613.301 434.744C611.123 434.744 609.098 434.396 607.225 433.699C605.396 433.002 603.785 432 602.391 430.694C601.041 429.344 599.974 427.689 599.19 425.729C598.45 423.769 598.079 421.526 598.079 419C598.079 416.387 598.471 414.079 599.255 412.075C600.083 410.072 601.193 408.373 602.587 406.98C603.981 405.586 605.614 404.541 607.487 403.844C609.359 403.104 611.384 402.733 613.562 402.733C615.74 402.733 617.743 403.082 619.572 403.779C621.445 404.432 623.056 405.412 624.406 406.718C625.8 408.025 626.867 409.658 627.608 411.618C628.391 413.578 628.783 415.821 628.783 418.347ZM621.793 418.673C621.793 416.714 621.554 415.059 621.075 413.709C620.596 412.315 619.964 411.183 619.18 410.311C618.396 409.44 617.503 408.809 616.502 408.417C615.5 408.025 614.455 407.829 613.366 407.829C612.321 407.829 611.297 408.003 610.296 408.352C609.294 408.7 608.401 409.288 607.617 410.115C606.833 410.943 606.202 412.054 605.723 413.447C605.287 414.841 605.069 416.583 605.069 418.673C605.069 420.59 605.309 422.245 605.788 423.638C606.267 425.032 606.899 426.186 607.683 427.101C608.466 427.972 609.359 428.625 610.361 429.061C611.406 429.453 612.451 429.649 613.497 429.649C614.542 429.649 615.565 429.474 616.567 429.126C617.569 428.777 618.462 428.19 619.246 427.362C620.03 426.491 620.639 425.359 621.075 423.965C621.554 422.528 621.793 420.764 621.793 418.673ZM635.442 434.091V403.256H640.537L641.517 409.201C642.258 407.372 643.455 405.847 645.11 404.628C646.765 403.365 648.769 402.733 651.12 402.733C652.166 402.733 653.058 402.821 653.799 402.995C654.583 403.169 655.28 403.408 655.889 403.713L654.648 409.332C654.126 409.07 653.516 408.852 652.819 408.678C652.166 408.504 651.404 408.417 650.532 408.417C648.137 408.417 646.134 409.244 644.522 410.899C642.911 412.511 642.105 414.972 642.105 418.281V434.091H635.442ZM685.257 419.849H663.633V420.111C663.633 423.246 664.548 425.62 666.377 427.231C668.206 428.843 670.623 429.649 673.628 429.649C675.283 429.649 676.764 429.518 678.071 429.257C679.421 428.952 680.771 428.494 682.121 427.885L683.428 432.784C682.165 433.35 680.662 433.808 678.92 434.156C677.178 434.548 675.262 434.744 673.171 434.744C670.95 434.744 668.838 434.439 666.834 433.83C664.831 433.22 663.067 432.262 661.543 430.955C660.062 429.649 658.886 427.994 658.015 425.99C657.144 423.987 656.709 421.591 656.709 418.804C656.709 416.409 657.057 414.231 657.754 412.271C658.494 410.268 659.518 408.569 660.824 407.176C662.174 405.739 663.786 404.65 665.658 403.909C667.575 403.125 669.687 402.733 671.995 402.733C673.999 402.733 675.806 403.06 677.417 403.713C679.072 404.367 680.466 405.303 681.598 406.522C682.774 407.698 683.667 409.157 684.277 410.899C684.93 412.598 685.257 414.492 685.257 416.583V419.849ZM678.332 415.146C678.332 414.1 678.201 413.121 677.94 412.206C677.679 411.291 677.287 410.507 676.764 409.854C676.242 409.157 675.545 408.613 674.674 408.221C673.846 407.785 672.845 407.568 671.669 407.568C669.491 407.568 667.705 408.265 666.312 409.658C664.962 411.052 664.134 412.925 663.829 415.276L678.332 415.146ZM690.927 430.171C690.927 428.908 691.362 427.863 692.233 427.035C693.104 426.164 694.128 425.729 695.304 425.729C696.479 425.729 697.481 426.164 698.309 427.035C699.18 427.863 699.615 428.908 699.615 430.171C699.615 431.565 699.18 432.675 698.309 433.503C697.481 434.33 696.479 434.744 695.304 434.744C694.128 434.744 693.104 434.33 692.233 433.503C691.362 432.675 690.927 431.565 690.927 430.171Z" fill="#2A0548"/>
<defs>
<linearGradient id="paint0_linear_628_710" x1="382.105" y1="19.9339" x2="486.685" y2="299.746" gradientUnits="userSpaceOnUse">
<stop offset="0.124597" stop-color="#FFE02D"/>
<stop offset="0.379808" stop-color="#FF4081"/>
<stop offset="0.610577" stop-color="#FF4081"/>
<stop offset="1" stop-color="#6400B4"/>
</linearGradient>
<linearGradient id="paint1_linear_628_710" x1="466.896" y1="407.171" x2="438.611" y2="271.457" gradientUnits="userSpaceOnUse">
<stop offset="0.395265" stop-color="#6A0DAD"/>
<stop offset="1" stop-color="#4361EE"/>
</linearGradient>
</defs>
</svg>
